<svg width="24" height="22" viewBox="0 0 24 22" fill="none" xmlns="http://www.w3.org/2000/svg">
<path fill-rule="evenodd" clip-rule="evenodd" d="M3.97459 9.51437C7.47611 3.30452 9.22687 0.200195 12 0.200195C14.7719 0.200195 16.5239 3.30452 20.0254 9.51437L20.4622 10.2872C23.3721 15.447 24.8277 18.027 23.5125 19.9133C22.1974 21.7997 18.943 21.7997 12.4368 21.7997H11.5632C5.05697 21.7997 1.80265 21.7997 0.487477 19.9133C-0.827692 18.027 0.627874 15.447 3.5378 10.2872L3.97459 9.51437ZM12 5.30007C12.2387 5.30007 12.4676 5.39489 12.6364 5.56367C12.8052 5.73245 12.9 5.96136 12.9 6.20005V12.1999C12.9 12.4386 12.8052 12.6675 12.6364 12.8363C12.4676 13.0051 12.2387 13.0999 12 13.0999C11.7613 13.0999 11.5324 13.0051 11.3636 12.8363C11.1948 12.6675 11.1 12.4386 11.1 12.1999V6.20005C11.1 5.96136 11.1948 5.73245 11.3636 5.56367C11.5324 5.39489 11.7613 5.30007 12 5.30007ZM12 16.9998C12.3183 16.9998 12.6235 16.8734 12.8485 16.6483C13.0735 16.4233 13.2 16.1181 13.2 15.7998C13.2 15.4816 13.0735 15.1764 12.8485 14.9513C12.6235 14.7263 12.3183 14.5998 12 14.5998C11.6817 14.5998 11.3765 14.7263 11.1515 14.9513C10.9265 15.1764 10.8 15.4816 10.8 15.7998C10.8 16.1181 10.9265 16.4233 11.1515 16.6483C11.3765 16.8734 11.6817 16.9998 12 16.9998Z" fill="#EF8C6C"/>
</svg>
