<svg width="50" height="50" viewBox="0 0 50 50" fill="none" xmlns="http://www.w3.org/2000/svg">
<path d="M42.9958 29.4499L42.8917 28.4145L42.8604 28.4165L42.825 28.4228L42.9958 29.4499ZM42.9958 29.4499L43.1 30.4874L43.1354 30.4832L43.1688 30.4769L42.9958 29.4499ZM34.5792 40.8707L35.2396 40.0645L35.2292 40.0582L34.5792 40.8707ZM34.5792 40.8707L33.9187 41.677L33.9292 41.6853L34.5792 40.8707ZM15.4208 40.8707L14.7604 40.0665L14.7458 40.079L14.7292 40.0936L15.4208 40.8707ZM15.4208 40.8707L16.0812 41.679L16.0979 41.6645L16.1125 41.652L15.4208 40.8707ZM7.00208 20.5499V19.5082H6.95208L6.9 19.5124L7.00208 20.5499ZM7.00208 20.5499V21.5915H7.05417L7.10625 21.5853L7.00208 20.5499ZM30.4833 6.89779C30.4521 6.52005 30.4083 6.14345 30.3521 5.76862C30.3044 5.43695 30.2046 5.11492 30.0562 4.81445L28.2042 5.7707C28.225 5.81237 28.2604 5.8957 28.2958 6.11237C28.3354 6.34154 28.3646 6.63945 28.4125 7.10404L30.4833 6.89779ZM30.8917 9.40404C30.8667 9.37279 30.7917 9.2457 30.7104 8.79987C30.6135 8.16863 30.5405 7.53422 30.4875 6.89779L28.4125 7.10404C28.4958 7.93945 28.5646 8.63112 28.6604 9.16862C28.7542 9.69362 28.9 10.229 29.2354 10.6686L30.8917 9.40404ZM31.8583 9.80404C31.6762 9.82854 31.4909 9.80444 31.3211 9.73419C31.1514 9.66394 31.0032 9.55004 30.8917 9.40404L29.2333 10.6665C29.5679 11.1053 30.0126 11.4476 30.5224 11.6587C31.0321 11.8698 31.5886 11.9423 32.1354 11.8686L31.8583 9.80404ZM33.9167 8.31862C33.2396 8.87487 32.7771 9.25195 32.4125 9.50404C32.0396 9.76237 31.8958 9.79779 31.8583 9.80404L32.1354 11.8686C32.6812 11.7957 33.1625 11.5207 33.6021 11.2145C34.05 10.902 34.5854 10.4645 35.2375 9.93112L33.9167 8.31862ZM35.6917 7.14987C35.3583 7.25612 35.0771 7.42487 34.8104 7.61445C34.5521 7.79779 34.2583 8.03945 33.9167 8.31862L35.2375 9.93112C35.5979 9.63529 35.8312 9.4457 36.0187 9.31237C36.1118 9.23736 36.2158 9.17695 36.3271 9.1332L35.6917 7.14987ZM37.8854 7.2582C37.1914 6.95783 36.4119 6.91934 35.6917 7.14987L36.3271 9.1332C36.5667 9.05732 36.8257 9.07064 37.0563 9.1707L37.8854 7.2582ZM39.5354 8.59987C39.2229 8.28737 38.9542 8.01654 38.7167 7.8082C38.4703 7.58225 38.1897 7.39663 37.8854 7.2582L37.0563 9.1707C37.1 9.18945 37.1792 9.2332 37.3458 9.37904C37.5187 9.52904 37.7313 9.74154 38.0625 10.0728L39.5354 8.59987ZM41.3958 10.4603L39.5354 8.59987L38.0625 10.0728L39.9229 11.9332L41.3958 10.4603ZM42.7375 12.1103C42.5983 11.8059 42.412 11.5254 42.1854 11.279C41.9771 11.0415 41.7062 10.7728 41.3958 10.4603L39.9229 11.9332C40.2542 12.2645 40.4646 12.477 40.6187 12.6499C40.7646 12.8165 40.8063 12.8957 40.825 12.9395L42.7375 12.1103ZM42.8458 14.304C43.0764 13.5838 43.0379 12.8043 42.7375 12.1103L40.825 12.9395C40.9244 13.1703 40.937 13.4292 40.8604 13.6686L42.8458 14.304ZM41.6771 16.079C41.9562 15.7374 42.1979 15.4436 42.3812 15.1853C42.5687 14.9186 42.7396 14.6374 42.8458 14.304L40.8604 13.6686C40.8173 13.7798 40.7576 13.8837 40.6833 13.977C40.4849 14.2434 40.2785 14.504 40.0646 14.7582L41.6771 16.079ZM40.1917 18.1374C40.1979 18.0999 40.2333 17.9561 40.4917 17.5832C40.7438 17.2186 41.1208 16.7561 41.6771 16.079L40.0646 14.7582C39.5312 15.4103 39.0917 15.9457 38.7812 16.3936C38.475 16.8311 38.2 17.3145 38.1271 17.8603L40.1917 18.1374ZM40.5917 19.104C40.4457 18.9925 40.3318 18.8443 40.2615 18.6746C40.1913 18.5048 40.1672 18.3195 40.1917 18.1374L38.1271 17.8603C38.0538 18.4067 38.1264 18.9629 38.3375 19.4722C38.5487 19.9815 38.8908 20.4259 39.3292 20.7603L40.5917 19.104ZM43.0979 19.5103C42.225 19.4228 41.6333 19.3645 41.1958 19.2853C40.75 19.204 40.6229 19.129 40.5917 19.104L39.3292 20.7603C39.7667 21.0936 40.3021 21.2395 40.8292 21.3353C41.3646 21.4311 42.0542 21.502 42.8917 21.5853L43.0979 19.5103ZM45.1812 19.9395C44.8808 19.7911 44.5587 19.6913 44.2271 19.6436C43.9146 19.5915 43.5354 19.554 43.0979 19.5103L42.8896 21.5832C43.3562 21.6311 43.6542 21.6603 43.8833 21.6999C44.0012 21.7131 44.1163 21.744 44.225 21.7915L45.1812 19.9395ZM46.6542 21.5665C46.3761 20.8639 45.8528 20.2859 45.1812 19.9395L44.225 21.7915C44.449 21.9067 44.6236 22.0991 44.7167 22.3332L46.6542 21.5665ZM46.8729 23.6811C46.8729 23.2415 46.8729 22.8603 46.8521 22.5436C46.838 22.2095 46.7712 21.8798 46.6542 21.5665L44.7167 22.3332C44.7333 22.377 44.7583 22.4645 44.7729 22.6832C44.7891 23.0163 44.7947 23.3498 44.7896 23.6832L46.8729 23.6811ZM46.8729 26.3145V23.6811H44.7896V26.3145H46.8729ZM46.6542 28.427C46.7833 28.102 46.8312 27.777 46.8521 27.4499C46.8729 27.1353 46.8729 26.754 46.8729 26.3145H44.7896C44.7896 26.7811 44.7896 27.0811 44.7729 27.3124C44.7719 27.4312 44.7529 27.5492 44.7167 27.6624L46.6542 28.427ZM45.1812 30.0561C45.8532 29.7092 46.3765 29.1303 46.6542 28.427L44.7167 27.6624C44.6236 27.8964 44.449 28.0889 44.225 28.204L45.1812 30.0561ZM43.0979 30.4853C43.5354 30.4415 43.9167 30.402 44.2271 30.3499C44.55 30.2978 44.8688 30.2165 45.1792 30.0582L44.225 28.204C44.1164 28.2516 44.0012 28.2825 43.8833 28.2957C43.6542 28.3353 43.3562 28.3645 42.8917 28.4124L43.0979 30.4853ZM40.5938 30.8915C40.625 30.8665 40.7521 30.7895 41.1979 30.7103C41.6354 30.6311 42.2271 30.5707 43.0979 30.4853L42.8917 28.4124C42.0562 28.4957 41.3646 28.5624 40.8271 28.6603C40.3021 28.754 39.7687 28.8999 39.3292 29.2332L40.5938 30.8915ZM40.1917 31.8582C40.1674 31.6759 40.1918 31.4905 40.2624 31.3207C40.3331 31.1509 40.4474 31.0028 40.5938 30.8915L39.3292 29.2332C38.8904 29.5678 38.5481 30.0125 38.337 30.5222C38.1259 31.032 38.0534 31.5885 38.1271 32.1353L40.1917 31.8582ZM41.6771 33.9165C41.2648 33.4289 40.8694 32.9272 40.4917 32.4124C40.2333 32.0415 40.1979 31.8957 40.1917 31.8582L38.1292 32.1374C38.2021 32.6832 38.4771 33.1624 38.7812 33.6019C39.0938 34.0478 39.5312 34.5853 40.0646 35.2353L41.6771 33.9165ZM42.8458 35.6915C42.7384 35.3745 42.5816 35.0764 42.3812 34.8082C42.1559 34.5037 41.9211 34.2063 41.6771 33.9165L40.0646 35.2353C40.3604 35.5978 40.55 35.829 40.6833 36.0186C40.7574 36.1112 40.8171 36.2145 40.8604 36.3249L42.8458 35.6915ZM42.7375 37.8853C43.0379 37.1912 43.0764 36.4118 42.8458 35.6915L40.8604 36.3249C40.9375 36.5649 40.9249 36.8247 40.825 37.0561L42.7375 37.8853ZM41.3979 39.5332C41.7083 39.2228 41.9771 38.954 42.1854 38.7165C42.4021 38.4686 42.5979 38.2082 42.7375 37.8853L40.825 37.0561C40.7705 37.1619 40.7002 37.2589 40.6167 37.3436C40.3926 37.5894 40.1613 37.8284 39.9229 38.0603L41.3979 39.5332ZM39.5354 41.3957L41.3979 39.5332L39.9229 38.0603L38.0625 39.9228L39.5354 41.3957ZM37.8854 42.7353C38.2062 42.5957 38.4687 42.402 38.7167 42.1853C38.9542 41.977 39.2229 41.7061 39.5354 41.3936L38.0625 39.9228C37.7313 40.254 37.5187 40.4645 37.3458 40.6165C37.2604 40.7002 37.1628 40.7705 37.0563 40.8249L37.8854 42.7353ZM35.6917 42.8457C36.4122 43.0756 37.1916 43.0363 37.8854 42.7353L37.0563 40.8249C36.8254 40.9242 36.5665 40.9368 36.3271 40.8603L35.6917 42.8457ZM33.9167 41.6749C34.2583 41.954 34.5521 42.1957 34.8104 42.379C35.0771 42.5686 35.3583 42.7395 35.6917 42.8457L36.3271 40.8603C36.2159 40.8172 36.112 40.7575 36.0187 40.6832C35.7522 40.4841 35.4917 40.277 35.2375 40.0624L33.9167 41.6749ZM31.8583 40.1915C31.8958 40.1957 32.0417 40.2332 32.4125 40.4915C32.7771 40.7436 33.2396 41.1207 33.9167 41.6749L35.2375 40.0624C34.5854 39.5311 34.05 39.0915 33.6021 38.779C33.1646 38.4749 32.6812 38.1999 32.1354 38.127L31.8583 40.1915ZM30.8917 40.5915C31.0032 40.4455 31.1514 40.3316 31.3211 40.2614C31.4909 40.1911 31.6762 40.167 31.8583 40.1915L32.1354 38.127C31.5891 38.0535 31.0332 38.1257 30.5238 38.3365C30.0145 38.5472 29.57 38.889 29.2354 39.327L30.8917 40.5915ZM30.4854 43.0978C30.5729 42.2249 30.6312 41.6332 30.7104 41.1957C30.7917 40.7499 30.8667 40.6228 30.8917 40.5915L29.2354 39.327C28.9021 39.7645 28.7562 40.302 28.6604 40.827C28.5646 41.3624 28.4937 42.052 28.4104 42.8895L30.4854 43.0978ZM30.0562 45.1811C30.2167 44.8686 30.2958 44.5499 30.35 44.227C30.4042 43.9145 30.4417 43.5353 30.4854 43.0978L28.4104 42.8895C28.3815 43.2218 28.3447 43.5532 28.2958 43.8832C28.2826 44.001 28.2517 44.1162 28.2042 44.2249L30.0562 45.1811ZM28.4292 46.654C29.1318 46.3759 29.7098 45.8527 30.0562 45.1811L28.2042 44.2249C28.089 44.4489 27.8966 44.6235 27.6625 44.7165L28.4292 46.654ZM26.3146 46.8728C26.7542 46.8728 27.1354 46.8728 27.4521 46.852C27.7771 46.8311 28.1042 46.7832 28.4292 46.654L27.6625 44.7165C27.5493 44.7528 27.4313 44.7717 27.3125 44.7728C27.0833 44.7895 26.7812 44.7895 26.3125 44.7895L26.3146 46.8728ZM23.6812 46.8728H26.3146L26.3125 44.7895H23.6812V46.8728ZM21.5667 46.654C21.8937 46.7832 22.2187 46.8311 22.5458 46.852C22.8604 46.8728 23.2417 46.8728 23.6812 46.8728V44.7895C23.2146 44.7895 22.9146 44.7895 22.6833 44.7728C22.5645 44.7717 22.4465 44.7528 22.3333 44.7165L21.5667 46.654ZM19.9396 45.1811C20.286 45.8527 20.8641 46.3759 21.5667 46.654L22.3333 44.7165C22.0993 44.6235 21.9068 44.4489 21.7917 44.2249L19.9396 45.1811ZM19.5104 43.0978C19.5542 43.5353 19.5938 43.9165 19.6437 44.227C19.6979 44.5499 19.7792 44.8686 19.9396 45.1811L21.7917 44.2249C21.7442 44.1162 21.7133 44.001 21.7 43.8832C21.6512 43.5539 21.6123 43.2232 21.5833 42.8915L19.5104 43.0978ZM19.1042 40.5915C19.1292 40.6228 19.2042 40.7499 19.2854 41.1957C19.3646 41.6332 19.4229 42.227 19.5104 43.0978L21.5833 42.8915C21.5 42.0561 21.4312 41.3645 21.3354 40.827C21.2417 40.302 21.0958 39.7665 20.7604 39.327L19.1042 40.5915ZM18.1375 40.1915C18.3196 40.167 18.5049 40.1911 18.6747 40.2614C18.8445 40.3316 18.9926 40.4455 19.1042 40.5915L20.7604 39.327C20.426 38.8886 19.9816 38.5485 19.4723 38.3374C18.963 38.1263 18.4069 38.0537 17.8604 38.127L18.1375 40.1915ZM16.0792 41.677C16.7562 41.1207 17.2187 40.7436 17.5833 40.4915C17.9562 40.2332 18.1 40.1957 18.1375 40.1915L17.8604 38.127C17.3146 38.1999 16.8333 38.4749 16.3937 38.7811C15.9458 39.0915 15.4104 39.5311 14.7583 40.0645L16.0792 41.677ZM14.3042 42.8457C14.6375 42.7395 14.9187 42.5707 15.1854 42.3811C15.4437 42.1978 15.7375 41.9561 16.0792 41.677L14.7583 40.0645C14.5041 40.2784 14.2436 40.4847 13.9771 40.6832C13.8839 40.7576 13.7799 40.8173 13.6687 40.8603L14.3042 42.8457ZM12.1104 42.7395C12.8045 43.0398 13.5839 43.0762 14.3042 42.8457L13.6687 40.8603C13.4294 40.9368 13.1704 40.9242 12.9396 40.8249L12.1104 42.7395ZM10.4604 41.3957C10.7729 41.7082 11.0417 41.979 11.2792 42.1874C11.525 42.402 11.7896 42.5999 12.1104 42.7395L12.9396 40.8249C12.833 40.7705 12.7354 40.7003 12.65 40.6165C12.4043 40.3924 12.1653 40.1611 11.9333 39.9228L10.4604 41.3957ZM8.6 39.5353L10.4604 41.3957L11.9333 39.9228L10.0729 38.0624L8.6 39.5353ZM7.25833 37.8853C7.39792 38.2061 7.59375 38.4686 7.81042 38.7165C8.01875 38.954 8.28958 39.2228 8.6 39.5353L10.0729 38.0624C9.83393 37.8304 9.60188 37.5914 9.37708 37.3457C9.29338 37.2603 9.22313 37.1626 9.16875 37.0561L7.25833 37.8853ZM7.15 35.6915C6.91947 36.4118 6.95796 37.1912 7.25833 37.8853L9.16875 37.0561C9.06869 36.8256 9.05745 36.5666 9.13333 36.327L7.15 35.6915ZM8.31875 33.9165C8.03958 34.2582 7.79792 34.552 7.61458 34.8103C7.41443 35.0778 7.25765 35.3752 7.15 35.6915L9.13333 36.327C9.17708 36.2157 9.23749 36.1117 9.3125 36.0186C9.44583 35.8311 9.63542 35.5978 9.93125 35.2374L8.31875 33.9165ZM9.80417 31.8582C9.79792 31.8957 9.7625 32.0394 9.50417 32.4124C9.25 32.777 8.875 33.2395 8.31875 33.9165L9.93125 35.2374C10.4646 34.5853 10.9042 34.0499 11.2146 33.6019C11.5208 33.1644 11.7958 32.6811 11.8687 32.1353L9.80417 31.8582ZM9.40417 30.8915C9.55017 31.0031 9.66407 31.1512 9.73432 31.321C9.80457 31.4908 9.82867 31.6761 9.80417 31.8582L11.8687 32.1353C11.942 31.5888 11.8694 31.0327 11.6583 30.5234C11.4472 30.0141 11.105 29.5697 10.6667 29.2353L9.40417 30.8915ZM6.89792 30.4874C7.77083 30.5728 8.3625 30.6311 8.8 30.7103C9.24583 30.7915 9.37292 30.8665 9.40417 30.8915L10.6667 29.2332C10.2292 28.8999 9.69375 28.754 9.16667 28.6603C8.63125 28.5645 7.94167 28.4936 7.10417 28.4103L6.89792 30.4874ZM4.81458 30.0561C5.12708 30.2165 5.44583 30.2957 5.76875 30.3499C6.08125 30.404 6.45833 30.4436 6.89792 30.4874L7.10625 28.4124C6.7739 28.3835 6.4425 28.3446 6.1125 28.2957C5.99466 28.2824 5.87949 28.2515 5.77083 28.204L4.81458 30.0561ZM3.34167 28.427C3.61935 29.1303 4.14266 29.7092 4.81458 30.0561L5.77083 28.204C5.54685 28.0889 5.37218 27.8964 5.27917 27.6624L3.34167 28.427ZM3.125 26.3186C3.125 26.7582 3.125 27.1395 3.14583 27.4561C3.15932 27.7896 3.22614 28.1188 3.34375 28.4311L5.28125 27.6665C5.24503 27.5534 5.22607 27.4354 5.225 27.3165C5.20952 26.9834 5.20396 26.65 5.20833 26.3165L3.125 26.3186ZM3.125 23.6853V26.3186H5.20833V23.6853H3.125ZM3.34375 21.5707C3.22659 21.8846 3.15979 22.2151 3.14583 22.5499C3.125 22.8645 3.125 23.2457 3.125 23.6853H5.20833C5.20833 23.2186 5.20833 22.9186 5.225 22.6874C5.22601 22.5685 5.24497 22.4505 5.28125 22.3374L3.34375 21.5707ZM4.81667 19.9436C4.14512 20.2901 3.62186 20.8681 3.34375 21.5707L5.28125 22.3374C5.37427 22.1033 5.54893 21.9109 5.77292 21.7957L4.81667 19.9436ZM6.9 19.5124C6.4625 19.5561 6.08125 19.5978 5.77083 19.6478C5.43917 19.6955 5.11713 19.7953 4.81667 19.9436L5.77292 21.7957C5.81458 21.7749 5.89792 21.7395 6.11458 21.704C6.34375 21.6645 6.64167 21.6353 7.10625 21.5874L6.9 19.5124ZM9.40625 19.1082C9.375 19.1332 9.24792 19.2082 8.80208 19.2895C8.36458 19.3686 7.77292 19.4249 6.9 19.5124L7.10625 21.5874C7.94167 21.504 8.63542 21.4353 9.17083 21.3395C9.69792 21.2457 10.2333 21.0999 10.6708 20.7645L9.40625 19.1082ZM9.80625 18.1415C9.83075 18.3236 9.80665 18.509 9.7364 18.6787C9.66615 18.8485 9.55225 18.9967 9.40625 19.1082L10.6708 20.7645C11.1088 20.4298 11.4505 19.9853 11.6613 19.476C11.872 18.9667 11.9443 18.4086 11.8708 17.8624L9.80625 18.1415ZM8.32083 16.0811C8.87708 16.7603 9.25417 17.2228 9.50833 17.5874C9.76667 17.9603 9.8 18.104 9.80625 18.1415L11.8708 17.8624C11.7979 17.3165 11.5229 16.8374 11.2167 16.3978C10.9062 15.9499 10.4667 15.4145 9.93333 14.7624L8.32083 16.0811ZM7.15208 14.3061C7.25625 14.6395 7.42708 14.9228 7.61667 15.1895C7.8 15.4457 8.04167 15.7415 8.32083 16.0811L9.93333 14.7624C9.71936 14.5075 9.51302 14.2462 9.31458 13.979C9.23976 13.8866 9.17935 13.7833 9.13542 13.6728L7.15208 14.3061ZM7.26042 12.1145C6.96057 12.8079 6.92208 13.5865 7.15208 14.3061L9.13542 13.6728C9.05954 13.4332 9.07285 13.1742 9.17292 12.9436L7.26042 12.1145ZM8.60208 10.4645C8.28958 10.7749 8.01875 11.0436 7.81042 11.2832C7.58449 11.5296 7.39887 11.8102 7.26042 12.1145L9.17292 12.9436C9.22745 12.8378 9.29769 12.7388 9.38125 12.654C9.60443 12.4075 9.83581 12.1684 10.075 11.9374L8.60208 10.4645ZM10.4625 8.60195L8.60208 10.4645L10.075 11.9374L11.9354 10.0749L10.4625 8.60195ZM12.1125 7.26237C11.8083 7.40098 11.5278 7.58658 11.2812 7.81237C11.0437 8.0207 10.7729 8.28945 10.4625 8.60195L11.9354 10.0749C12.2667 9.7457 12.4792 9.5332 12.6521 9.38112C12.8187 9.23529 12.8979 9.19362 12.9417 9.17279L12.1125 7.26237ZM14.3062 7.15195C13.5857 6.92209 12.8063 6.96132 12.1125 7.26237L12.9417 9.17279C13.1722 9.07272 13.4312 9.06149 13.6708 9.13737L14.3062 7.15195ZM16.0812 8.32279C15.7396 8.04362 15.4458 7.80195 15.1875 7.61862C14.9201 7.41765 14.6227 7.26015 14.3062 7.15195L13.6708 9.13737C13.782 9.18047 13.8859 9.24018 13.9792 9.31445C14.1667 9.44987 14.4 9.63945 14.7625 9.93529L16.0812 8.32279ZM18.1396 9.8082C18.1021 9.80195 17.9583 9.76654 17.5854 9.5082C17.0705 9.12979 16.5688 8.7358 16.0812 8.32279L14.7625 9.93529C15.4125 10.4686 15.95 10.9082 16.3958 11.2186C16.8333 11.5228 17.3167 11.7978 17.8625 11.8728L18.1396 9.8082ZM19.1062 9.40612C18.995 9.5525 18.8469 9.66681 18.6771 9.73743C18.5073 9.80805 18.3219 9.83247 18.1396 9.8082L17.8625 11.8728C18.4091 11.9467 18.9655 11.8725 19.4752 11.6617C19.9849 11.451 20.4298 11.109 20.7646 10.6707L19.1062 9.40612ZM19.5125 6.90195C19.425 7.77279 19.3667 8.36654 19.2875 8.80195C19.2062 9.24779 19.1312 9.37487 19.1062 9.40612L20.7646 10.6707C21.0979 10.2332 21.2437 9.69779 21.3375 9.1707C21.4333 8.63529 21.5042 7.9457 21.5875 7.1082L19.5125 6.90195ZM19.9417 4.81862C19.7812 5.13112 19.7 5.44987 19.6458 5.77279C19.5938 6.08529 19.5562 6.46237 19.5125 6.90195L21.5854 7.11029C21.6143 6.77794 21.6532 6.44654 21.7021 6.11654C21.7152 5.99867 21.7461 5.88348 21.7938 5.77487L19.9417 4.81862ZM21.5708 3.3457C20.8671 3.6239 20.2882 4.14592 19.9417 4.81862L21.7938 5.77487C21.9089 5.55089 22.1014 5.37622 22.3354 5.2832L21.5708 3.3457ZM23.6833 3.12695C23.2437 3.12695 22.8625 3.12695 22.5458 3.14779C22.2123 3.16127 21.8832 3.22809 21.5708 3.3457L22.3354 5.2832C22.4486 5.24692 22.5666 5.22796 22.6854 5.22695C22.9146 5.21029 23.2167 5.21029 23.6854 5.21029L23.6833 3.12695ZM26.3167 3.12695H23.6833V5.21029H26.3167V3.12695ZM28.4312 3.3457C28.1173 3.22851 27.7869 3.16171 27.4521 3.14779C27.1375 3.12695 26.7562 3.12695 26.3167 3.12695V5.21029C26.7833 5.21029 27.0833 5.21029 27.3146 5.22695C27.4334 5.22863 27.5513 5.24758 27.6646 5.2832L28.4312 3.3457ZM30.0583 4.81862C29.7114 4.1467 29.1325 3.62338 28.4292 3.3457L27.6646 5.2832C27.8986 5.37622 28.0911 5.55089 28.2062 5.77487L30.0583 4.81862ZM32.2917 24.9999C32.2917 26.9337 31.5234 28.7884 30.156 30.1559C28.7885 31.5233 26.9339 32.2915 25 32.2915V34.3749C27.4864 34.3749 29.871 33.3871 31.6291 31.629C33.3873 29.8708 34.375 27.4863 34.375 24.9999H32.2917ZM25 17.7082C26.9339 17.7082 28.7885 18.4764 30.156 19.8439C31.5234 21.2113 32.2917 23.066 32.2917 24.9999H34.375C34.375 22.5135 33.3873 20.1289 31.6291 18.3707C29.871 16.6126 27.4864 15.6249 25 15.6249V17.7082ZM17.7083 24.9999C17.7083 23.066 18.4766 21.2113 19.844 19.8439C21.2115 18.4764 23.0661 17.7082 25 17.7082V15.6249C22.5136 15.6249 20.129 16.6126 18.3709 18.3707C16.6127 20.1289 15.625 22.5135 15.625 24.9999H17.7083ZM25 32.2915C23.0661 32.2915 21.2115 31.5233 19.844 30.1559C18.4766 28.7884 17.7083 26.9337 17.7083 24.9999H15.625C15.625 27.4863 16.6127 29.8708 18.3709 31.629C20.129 33.3871 22.5136 34.3749 25 34.3749V32.2915Z" fill="black"/>
</svg>
