<svg width="54" height="50" viewBox="0 0 54 50" fill="none" xmlns="http://www.w3.org/2000/svg">
<path d="M22.8197 7.5C26.3523 7.5 29.7402 8.9025 32.2381 11.399C34.736 13.8954 36.1393 17.2813 36.1393 20.8119C36.1393 24.1296 34.9303 27.1606 32.9221 29.4748L44.5 41.0459L43.0451 42.5L31.4672 30.9289C29.06 32.9936 25.9918 34.1272 22.8197 34.1238C19.2871 34.1238 15.8992 32.7213 13.4012 30.2248C10.9033 27.7283 9.5 24.3424 9.5 20.8119C9.5 17.2813 10.9033 13.8954 13.4012 11.399C15.8992 8.9025 19.2871 7.5 22.8197 7.5ZM22.8197 9.54798C19.8306 9.54798 16.9639 10.7347 14.8502 12.8471C12.7366 14.9595 11.5492 17.8245 11.5492 20.8119C11.5492 23.7992 12.7366 26.6643 14.8502 28.7767C16.9639 30.889 19.8306 32.0758 22.8197 32.0758C24.2997 32.0758 25.7653 31.7844 27.1327 31.2184C28.5001 30.6523 29.7426 29.8226 30.7891 28.7767C31.8357 27.7307 32.6659 26.489 33.2322 25.1224C33.7986 23.7558 34.0902 22.2911 34.0902 20.8119C34.0902 19.3327 33.7986 17.868 33.2322 16.5014C32.6659 15.1348 31.8357 13.8931 30.7891 12.8471C29.7426 11.8012 28.5001 10.9715 27.1327 10.4054C25.7653 9.83933 24.2997 9.54798 22.8197 9.54798Z" fill="black"/>
</svg>
